<svg width="20" height="20" viewBox="0 0 20 20" fill="none" xmlns="http://www.w3.org/2000/svg">
<g filter="url(#filter0_i_132_67)">
<circle cx="10" cy="10" r="10" fill="#D9D9D9"/>
</g>
<circle cx="15.5" cy="4.5" r="2.5" fill="#D9D9D9"/>
<circle cx="4.5" cy="4.5" r="2.5" fill="#D9D9D9"/>
<path d="M7 3.59125C7 4.92156 5.88071 6 4.5 6C3.11929 6 2 4.92156 2 3.59125C2 2.38688 3.19129 3.5919 4.5 3.59125C5.88071 3.59125 7 2.26094 7 3.59125Z" fill="black"/>
<path d="M18 3.59125C18 4.92156 16.8807 6 15.5 6C14.1193 6 13 4.92156 13 3.59125C13 2.38688 14.1913 3.5919 15.5 3.59125C16.8807 3.59125 18 2.26094 18 3.59125Z" fill="black"/>
<defs>
<filter id="filter0_i_132_67" x="0" y="0" width="20" height="24" filterUnits="userSpaceOnUse" color-interpolation-filters="sRGB">
<feFlood flood-opacity="0" result="BackgroundImageFix"/>
<feBlend mode="normal" in="SourceGraphic" in2="BackgroundImageFix" result="shape"/>
<feColorMatrix in="SourceAlpha" type="matrix" values="0 0 0 0 0 0 0 0 0 0 0 0 0 0 0 0 0 0 127 0" result="hardAlpha"/>
<feOffset dy="16"/>
<feGaussianBlur stdDeviation="2"/>
<feComposite in2="hardAlpha" operator="arithmetic" k2="-1" k3="1"/>
<feColorMatrix type="matrix" values="0 0 0 0 0 0 0 0 0 0.403922 0 0 0 0 0.87451 0 0 0 0.97 0"/>
<feBlend mode="normal" in2="shape" result="effect1_innerShadow_132_67"/>
</filter>
</defs>
</svg>
